<svg width="40" height="40" viewBox="0 0 40 40" fill="none" xmlns="http://www.w3.org/2000/svg">
<path d="M6.66667 13.3333C10.3486 13.3333 13.3333 10.3486 13.3333 6.66667C13.3333 2.98477 10.3486 0 6.66667 0C2.98477 0 0 2.98477 0 6.66667C0 10.3486 2.98477 13.3333 6.66667 13.3333Z" fill="#489CA8"/>
<path opacity="0.6" d="M33.3334 13.3333C37.0153 13.3333 40 10.3486 40 6.66667C40 2.98477 37.0153 0 33.3334 0C29.6515 0 26.6667 2.98477 26.6667 6.66667C26.6667 10.3486 29.6515 13.3333 33.3334 13.3333Z" fill="#306870"/>
<path d="M6.66667 40C10.3486 40 13.3333 37.0153 13.3333 33.3334C13.3333 29.6515 10.3486 26.6667 6.66667 26.6667C2.98477 26.6667 0 29.6515 0 33.3334C0 37.0153 2.98477 40 6.66667 40Z" fill="#50ADBB"/>
<path opacity="0.8" d="M33.3334 40C37.0153 40 40 37.0153 40 33.3334C40 29.6515 37.0153 26.6667 33.3334 26.6667C29.6515 26.6667 26.6667 29.6515 26.6667 33.3334C26.6667 37.0153 29.6515 40 33.3334 40Z" fill="#489CA8"/>
</svg>
