<svg width="40" height="40" viewBox="0 0 40 40" fill="none" xmlns="http://www.w3.org/2000/svg">
<path d="M20 40C31.0457 40 40 31.0457 40 20C40 8.9543 31.0457 0 20 0C8.9543 0 0 8.9543 0 20C0 31.0457 8.9543 40 20 40Z" fill="url(#paint0_linear_1202_26365)"/>
<path d="M30 40V20C30 14.4772 25.5228 10 20 10C14.4772 10 10 14.4772 10 20V40H30Z" fill="url(#paint1_linear_1202_26365)"/>
<path d="M19.9999 30C25.5228 30 29.9999 25.5228 29.9999 20C29.9999 14.4772 25.5228 10 19.9999 10C14.4771 10 9.99994 14.4772 9.99994 20C9.99994 25.5228 14.4771 30 19.9999 30Z" fill="#3E8C97"/>
<defs>
<linearGradient id="paint0_linear_1202_26365" x1="20" y1="0" x2="20" y2="40" gradientUnits="userSpaceOnUse">
<stop stop-color="#42CDE0"/>
<stop offset="1" stop-color="#489CA8" stop-opacity="0"/>
</linearGradient>
<linearGradient id="paint1_linear_1202_26365" x1="20" y1="10" x2="20" y2="40" gradientUnits="userSpaceOnUse">
<stop stop-color="#167785"/>
<stop offset="1" stop-color="#167785" stop-opacity="0"/>
</linearGradient>
</defs>
</svg>
