<svg width="22" height="21" viewBox="0 0 22 21" fill="none" xmlns="http://www.w3.org/2000/svg">
<path fill-rule="evenodd" clip-rule="evenodd" d="M21.3688 10.372C21.3688 4.64374 16.7491 6.10352e-05 11.0504 6.10352e-05C5.35144 6.10352e-05 0.731689 4.64374 0.731689 10.372C0.731689 16.1 5.35144 20.7438 11.0503 20.7438C16.7491 20.7438 21.3688 16.1 21.3688 10.372ZM9.12904 5.47858C9.03657 5.60422 8.98319 5.75434 8.97558 5.91017C8.96798 6.06599 9.00648 6.2206 9.08628 6.35465C9.13923 6.44327 9.20922 6.52052 9.29219 6.58194C10.4941 7.47736 11.1841 8.84645 11.1841 10.3387C11.1841 11.831 10.4941 13.2001 9.29219 14.0955C9.20931 14.157 9.13942 14.2342 9.08654 14.3228C8.97923 14.5024 8.94747 14.7171 8.99822 14.9201C9.02329 15.0206 9.0677 15.1151 9.12904 15.1982C9.19026 15.2814 9.26732 15.3516 9.35577 15.4048C9.44422 15.4581 9.54233 15.4933 9.64445 15.5085C9.74657 15.5237 9.85068 15.5185 9.9508 15.4933C10.0509 15.4681 10.1451 15.4234 10.2278 15.3617C10.598 15.0857 10.9371 14.7704 11.2392 14.4212H13.4654C13.8988 14.4212 14.2511 14.0684 14.2511 13.6329C14.2511 13.1974 13.8996 12.8447 13.4654 12.8447H12.2367C12.5801 12.054 12.7565 11.2009 12.7547 10.3389C12.7566 9.47674 12.5802 8.62355 12.2368 7.83281H13.4661C13.8996 7.83281 14.2517 7.48016 14.2517 7.04454C14.2517 6.60905 13.9002 6.2564 13.4661 6.2564H11.2405C10.9382 5.90688 10.5989 5.59124 10.2285 5.31504C10.1458 5.25341 10.0518 5.20872 9.9518 5.18354C9.85182 5.15836 9.74784 5.15318 9.64585 5.16831C9.43953 5.1993 9.25394 5.31089 9.12981 5.47858H9.12904ZM7.96912 9.64439C7.91228 9.79063 7.88494 9.94669 7.88869 10.1035C7.89575 10.41 8.02144 10.7018 8.2393 10.9174C8.45577 11.1316 8.74796 11.2519 9.05251 11.2521C9.35697 11.2518 9.64905 11.1316 9.86546 10.9174C10.0833 10.7018 10.209 10.41 10.2161 10.1035C10.2199 9.9467 10.1927 9.79065 10.1359 9.64439C10.0793 9.49854 9.99417 9.36542 9.88557 9.2528C9.77738 9.14065 9.64776 9.05137 9.50442 8.99026C9.36151 8.92937 9.20778 8.89798 9.05244 8.89798C8.89711 8.89798 8.74337 8.92937 8.60047 8.99026C8.45717 9.05138 8.3276 9.14066 8.21945 9.2528C8.11084 9.36542 8.02575 9.49854 7.96912 9.64439Z" fill="white"/>
</svg>
