<svg width="24" height="21" viewBox="0 0 24 21" fill="none" xmlns="http://www.w3.org/2000/svg">
<g clip-path="url(#clip0_1175_211624)">
<path d="M11.8932 12.45C13.0278 12.45 13.9475 11.5197 13.9475 10.372C13.9475 9.22427 13.0278 8.29388 11.8932 8.29388C10.7586 8.29388 9.83887 9.22427 9.83887 10.372C9.83887 11.5197 10.7586 12.45 11.8932 12.45Z" fill="white"/>
<path d="M11.8934 14.5596C17.8815 14.5596 22.7357 12.6848 22.7357 10.372C22.7357 8.0592 17.8815 6.18433 11.8934 6.18433C5.90532 6.18433 1.05103 8.0592 1.05103 10.372C1.05103 12.6848 5.90532 14.5596 11.8934 14.5596Z" stroke="white" stroke-width="1.09549"/>
<path d="M8.30795 12.4658C11.302 17.7116 15.3343 21.0266 17.3143 19.8703C19.2943 18.7139 18.4723 13.5239 15.4783 8.27813C12.4843 3.03237 8.45199 -0.282715 6.47195 0.873676C4.49191 2.03007 5.31391 7.22003 8.30795 12.4658Z" stroke="white" stroke-width="1.09549"/>
<path d="M8.30812 8.27816C5.31408 13.5239 4.49208 18.7139 6.47212 19.8703C8.45216 21.0267 12.4844 17.7116 15.4785 12.4658C18.4725 7.22006 19.2945 2.03009 17.3145 0.8737C15.3344 -0.28269 11.3022 3.0324 8.30812 8.27816Z" stroke="white" stroke-width="1.09549"/>
</g>
<defs>
<clipPath id="clip0_1175_211624">
<rect width="23.0487" height="20.7438" fill="white" transform="translate(0.368896 6.10352e-05)"/>
</clipPath>
</defs>
</svg>
