<svg width="25" height="20" viewBox="0 0 25 20" fill="none" xmlns="http://www.w3.org/2000/svg">
<g opacity="0.3">
<path d="M10.1781 13.1347C10.1781 14.0359 9.70859 15.5108 8.5973 15.5108C7.486 15.5108 7.0165 14.0359 7.0165 13.1347C7.0165 12.2334 7.486 10.7586 8.5973 10.7586C9.70859 10.7586 10.1781 12.2334 10.1781 13.1347V13.1347ZM22.8374 10.9569C22.8374 12.3326 22.6996 13.7901 22.0836 15.0537C20.4511 18.3569 15.9629 18.2793 12.7496 18.2793C9.48461 18.2793 4.72929 18.3957 3.0322 15.0537C2.40332 13.8031 2.16211 12.3326 2.16211 10.9569C2.16211 9.15006 2.76083 7.44238 3.94966 6.05812C3.72568 5.37677 3.618 4.66092 3.618 3.95369C3.618 3.02654 3.82906 2.56081 4.24687 1.7199C6.1981 1.7199 7.44723 2.10801 8.93327 3.27234C10.1824 2.97479 11.466 2.84111 12.7539 2.84111C13.9169 2.84111 15.0885 2.96617 16.217 3.23785C17.6815 2.08645 18.9306 1.7199 20.8603 1.7199C21.2825 2.56081 21.4892 3.02654 21.4892 3.95369C21.4892 4.66092 21.3772 5.36383 21.1575 6.03224C22.3421 7.42944 22.8374 9.15006 22.8374 10.9569V10.9569ZM20.0678 13.1347C20.0678 11.2415 18.9177 9.57267 16.9019 9.57267C16.0878 9.57267 15.3082 9.71929 14.4898 9.83141C13.848 9.9306 13.2062 9.96941 12.5471 9.96941C11.8924 9.96941 11.2506 9.9306 10.6045 9.83141C9.79905 9.71929 9.0108 9.57267 8.19241 9.57267C6.17656 9.57267 5.0265 11.2415 5.0265 13.1347C5.0265 16.9209 8.48961 17.5031 11.5048 17.5031H13.5809C16.609 17.5031 20.0678 16.9252 20.0678 13.1347V13.1347ZM16.5099 10.7586C15.3986 10.7586 14.9291 12.2334 14.9291 13.1347C14.9291 14.0359 15.3986 15.5108 16.5099 15.5108C17.6212 15.5108 18.0907 14.0359 18.0907 13.1347C18.0907 12.2334 17.6212 10.7586 16.5099 10.7586Z" fill="white"/>
</g>
</svg>
