<svg width="23" height="21" viewBox="0 0 23 21" fill="none" xmlns="http://www.w3.org/2000/svg">
<path fill-rule="evenodd" clip-rule="evenodd" d="M15.301 14.4873C16.1074 14.4039 16.7191 13.7087 16.6913 12.8745C16.6636 12.0404 15.9684 11.373 15.1342 11.373H15.0786C14.2166 11.4008 13.5492 12.1238 13.5771 12.9858C13.6049 13.4029 13.7717 13.7644 14.0219 14.0146C13.0765 15.8777 11.6307 17.2402 9.46184 18.3803C7.98811 19.1589 6.45886 19.4369 4.92954 19.2423C3.67823 19.0754 2.70505 18.5194 2.09319 17.6016C1.20346 16.2391 1.12008 14.7654 1.87084 13.2916C2.39918 12.2349 3.23326 11.4564 3.76161 11.0671C3.65043 10.7055 3.48354 10.0939 3.40016 9.64899C-0.631723 12.5687 -0.214553 16.5172 1.00884 18.3803C1.92643 19.7707 3.7894 20.6327 5.847 20.6327C6.40307 20.6327 6.95915 20.577 7.51529 20.438C11.0745 19.7428 13.7717 17.6295 15.3009 14.4873H15.301ZM20.1949 11.0393C18.0816 8.5645 14.9674 7.20201 11.4082 7.20201H10.9634C10.7131 6.70153 10.1847 6.36774 9.60087 6.36774H9.54522C8.68335 6.39553 8.01603 7.1185 8.04376 7.98057C8.07156 8.81471 8.76666 9.48209 9.60087 9.48209H9.65646C10.2682 9.45423 10.7965 9.06499 11.019 8.53664H11.5194C13.6327 8.53664 15.6347 9.14837 17.4421 10.3441C18.8324 11.2618 19.8334 12.4574 20.3895 13.9033C20.8622 15.0713 20.8344 16.2113 20.3338 17.1846C19.5553 18.6583 18.2484 19.4647 16.5245 19.4647C15.4123 19.4647 14.3557 19.131 13.7995 18.8807C13.4937 19.1588 12.9375 19.6036 12.5483 19.8818C13.744 20.4379 14.9674 20.7438 16.1352 20.7438C18.8046 20.7438 20.7789 19.2701 21.5296 17.7963C22.336 16.1835 22.2803 13.4029 20.1949 11.0393H20.1949ZM6.06955 14.96C6.09734 15.7942 6.79251 16.4615 7.62666 16.4615H7.68231C8.54431 16.4338 9.21163 15.7107 9.18377 14.8487C9.15604 14.0145 8.4608 13.3472 7.62666 13.3472H7.57107C7.51542 13.3472 7.43197 13.3472 7.37645 13.3749C6.23637 11.4841 5.76368 9.4265 5.93058 7.20195C6.04169 5.53353 6.59789 4.08759 7.57107 2.89187C8.37742 1.86304 9.93453 1.36248 10.9912 1.33476C13.9385 1.2791 15.1897 4.94953 15.2732 6.42339C15.6347 6.50677 16.2464 6.70146 16.6635 6.8405C16.3298 2.33586 13.5492 6.10352e-05 10.88 6.10352e-05C8.37742 6.10352e-05 6.06955 1.80751 5.15189 4.47697C3.87285 8.03622 4.70706 11.4564 6.26417 14.1537C6.1252 14.3483 6.04175 14.6542 6.06955 14.9601V14.96V14.96Z" fill="white"/>
</svg>
