<svg width="22" height="21" viewBox="0 0 22 21" fill="none" xmlns="http://www.w3.org/2000/svg">
<g clip-path="url(#clip0_1175_211661)">
<path fill-rule="evenodd" clip-rule="evenodd" d="M1.38985 6.10352e-05H20.1889C20.7259 6.10352e-05 21.1613 0.435404 21.1613 0.972426V19.7715C21.1613 20.3085 20.7259 20.7438 20.1889 20.7438H1.38985C0.852823 20.7438 0.41748 20.3085 0.41748 19.7715V0.972426C0.41748 0.435404 0.852823 6.10352e-05 1.38985 6.10352e-05ZM12.4524 18.393V16.1199C12.8632 16.4656 13.3093 16.7249 13.7909 16.8977C14.2725 17.0706 14.7587 17.157 15.2498 17.157C15.5378 17.157 15.7892 17.1309 16.004 17.0788C16.2188 17.0268 16.3982 16.9545 16.5422 16.8622C16.6862 16.7698 16.7937 16.6609 16.8645 16.5355C16.9353 16.41 16.9706 16.2739 16.9706 16.127C16.9706 15.9281 16.9141 15.7506 16.8006 15.5943C16.6873 15.438 16.5328 15.2936 16.3368 15.161C16.1409 15.0284 15.9084 14.9005 15.6393 14.7774C15.3702 14.6543 15.0798 14.5288 14.7682 14.401C13.975 14.0695 13.3837 13.6646 12.9942 13.1863C12.6047 12.708 12.4099 12.1303 12.4099 11.4532C12.4099 10.9228 12.5161 10.467 12.7286 10.0858C12.941 9.7046 13.2302 9.39089 13.5961 9.14464C13.962 8.8984 14.3858 8.71726 14.8673 8.60124C15.3489 8.48523 15.8588 8.42722 16.397 8.42722C16.9259 8.42722 17.3944 8.45918 17.8028 8.52312C18.2112 8.58705 18.5877 8.68531 18.9324 8.8179V10.9417C18.7624 10.8233 18.5771 10.7192 18.3765 10.6292C18.1757 10.5392 17.9692 10.4646 17.7568 10.4055C17.5443 10.3463 17.333 10.3024 17.123 10.274C16.9128 10.2456 16.7134 10.2314 16.5245 10.2314C16.2648 10.2314 16.0288 10.2563 15.8163 10.306C15.6038 10.3557 15.4244 10.4256 15.2781 10.5155C15.1317 10.6055 15.0184 10.7133 14.9382 10.8387C14.8579 10.9642 14.8178 11.1051 14.8178 11.2614C14.8178 11.4318 14.8626 11.5846 14.9523 11.7195C15.042 11.8545 15.1695 11.9823 15.3347 12.1031C15.5 12.2239 15.7006 12.3422 15.9367 12.4583C16.1728 12.5743 16.4395 12.6938 16.7369 12.817C17.1431 12.9874 17.5077 13.1686 17.8312 13.3604C18.1545 13.5521 18.4319 13.7688 18.6632 14.0103C18.8946 14.2518 19.0716 14.5276 19.1944 14.8378C19.3171 15.148 19.3785 15.5091 19.3785 15.921C19.3785 16.4893 19.2711 16.9664 19.0563 17.3522C18.8415 17.7383 18.5499 18.0507 18.1817 18.2899C17.8133 18.5291 17.385 18.7007 16.8962 18.805C16.4077 18.9092 15.8919 18.9612 15.3489 18.9612C14.7918 18.9612 14.2618 18.9139 13.759 18.819C13.2562 18.7244 12.8207 18.5823 12.4524 18.393ZM11.5996 10.4618H8.63431V18.7991H6.28529V10.4618H3.3345V8.58928H11.5996V10.4618Z" fill="white"/>
</g>
<defs>
<clipPath id="clip0_1175_211661">
<rect width="20.7438" height="20.7438" fill="white" transform="translate(0.41748 6.10352e-05)"/>
</clipPath>
</defs>
</svg>
